<svg xmlns="http://www.w3.org/2000/svg" version="1.1" xmlns:xlink="http://www.w3.org/1999/xlink" viewBox="0 0 61 60">
<g clip-path="url(#clip0_684_9585)">
<path d="M0.00195313 30C0.00195313 24.0666 1.76142 18.2664 5.05787 13.3329C8.35431 8.39943 13.0397 4.55426 18.5215 2.28363C24.0032 0.0129986 30.0352 -0.581102 35.8547 0.576455C41.6741 1.73401 47.0196 4.59124 51.2152 8.78681C55.4107 12.9824 58.268 18.3279 59.4255 24.1473C60.5831 29.9667 59.989 35.9987 57.7183 41.4805C55.4477 46.9623 51.6025 51.6477 46.6691 54.9441C41.7356 58.2405 35.9354 60 30.002 60C22.0455 60 14.4148 56.8393 8.78875 51.2132C3.16266 45.5871 0.00195313 37.9565 0.00195312 30" fill="#CEC73D"></path>
<path fill-rule="evenodd" clip-rule="evenodd" d="M41.6414 27.8147C41.6414 19.3923 38.5256 13.3555 29.8471 13.3555C23.1816 13.3555 18.9482 18.0397 18.9482 24.3919C18.9482 30.3378 23.1816 33.8049 28.4501 33.8049C31.8749 33.8049 33.9535 32.5899 35.0267 31.6438C34.5758 38.0383 31.3331 41.5923 26.8753 41.5923C25.3839 41.604 23.9028 41.3444 22.5043 40.826L21.5158 46.2321C23.0792 46.5973 24.6793 46.7819 26.2847 46.7824C36.4618 46.7824 41.6414 38.8554 41.6414 27.821V27.8147ZM35.1092 24.3073C35.1092 25.2534 35.1092 26.5129 34.7494 27.059C34.1144 28.0496 32.4972 28.8158 30.4694 28.8158C27.3198 28.8158 25.3364 26.6526 25.3364 23.6807C25.3364 20.929 26.96 18.3678 30.1117 18.3678C33.3524 18.3678 35.1092 21.2952 35.1092 24.3115" fill="#25303B"></path>
</g>
<defs>
<clipPath id="clip0_684_9585">
<rect width="60" height="60" fill="white" transform="translate(0.00195312)"></rect>
</clipPath>
</defs>
</svg>