<svg xmlns="http://www.w3.org/2000/svg" version="1.1" xmlns:xlink="http://www.w3.org/1999/xlink" viewBox="0 0 60 60">
<g clip-path="url(#clip0_684_9994)">
<path d="M33.1945 42.2768C29.8861 42.2768 28.053 41.4598 26.5142 40.5433L28.3155 36.9724C29.644 37.9257 31.2315 38.4514 32.8664 38.4795C35.5504 38.4795 37.2204 36.9068 37.2204 34.9425C37.2204 32.2903 35.1905 31.3737 32.8346 31.3737H30.4428V27.5425H32.8664C35.1249 27.5425 36.5325 26.3635 36.5325 24.596C36.5325 23.1144 35.4212 21.7808 32.9976 21.7808C31.4103 21.7854 29.8815 22.3808 28.7092 23.4509L27.0391 20.0451C28.9992 18.7349 31.1307 17.9919 34.0454 17.9919C38.7593 17.9919 41.4538 20.8072 41.4538 23.887C41.4538 26.2767 40.1838 28.1754 37.72 29.0919V29.1575C40.2748 29.6486 42.2053 31.6129 42.2053 34.8557C42.1968 38.9049 38.5645 42.2768 33.1945 42.2768Z" fill="#25303B"></path>
<path d="M54.738 37.1799C53.504 37.1799 52.888 36.4158 52.689 35.3786C51.6053 36.6613 50.5914 37.3027 48.7901 37.3027C46.4617 37.3027 44.8911 35.6241 44.8911 33.3804C44.8911 29.8011 48.6419 29.111 51.5545 29.111C52.0964 29.111 52.4181 29.0856 52.4181 28.6411V27.7775C52.4181 26.8419 51.8275 25.9529 50.0008 25.9529C48.8059 25.9599 47.6517 26.3878 46.7411 27.1616L45.5325 24.6935C46.9888 23.7558 48.5932 23.3367 50.8644 23.3367C52.7144 23.3367 55.7011 24.0013 55.7011 27.8029V33.8673C55.7011 34.335 55.7498 34.7309 56.1689 34.7309C56.3623 34.7136 56.5529 34.6723 56.7362 34.6081L56.9352 36.8539C56.2172 37.0443 55.4803 37.1536 54.738 37.1799ZM52.3948 31.2531C52.0223 31.2298 51.654 31.2298 51.3576 31.2298C50.149 31.2298 48.3202 31.5262 48.3202 33.1052C48.3122 33.3247 48.3495 33.5434 48.4299 33.7477C48.5102 33.9521 48.6319 34.1376 48.7873 34.2928C48.9426 34.448 49.1284 34.5694 49.3328 34.6495C49.5372 34.7296 49.756 34.7667 49.9754 34.7584C50.317 34.7731 50.6578 34.7169 50.9766 34.5934C51.2953 34.4699 51.5851 34.2818 51.8275 34.0408C52.0216 33.8332 52.1718 33.5886 52.2692 33.3217C52.3667 33.0548 52.4094 32.771 52.3948 32.4872V31.2531Z" fill="#25303B"></path>
<path d="M14.8022 22.7609V41.7159H9.69463V22.7609H2.58887V18.6016H21.9038V22.7609H14.8022Z" fill="#25303B"></path>
<path d="M57.0006 0H2.99937C1.34286 0 0 1.34286 0 2.99937V6.00085C0 7.65735 1.34286 9.00021 2.99937 9.00021H57.0006C58.6571 9.00021 60 7.65735 60 6.00085V2.99937C60 1.34286 58.6571 0 57.0006 0Z" fill="#F58F53"></path>
<path d="M60.002 57.0008V53.9994C60.002 52.3429 58.6591 51 57.0026 51H3.00134C1.34483 51 0.00197601 52.3429 0.00197601 53.9994V57.0008C0.00197601 58.6573 1.34483 60.0002 3.00134 60.0002H57.0026C58.6591 60.0002 60.002 58.6573 60.002 57.0008Z" fill="#F58F53"></path>
</g>
<defs>
<clipPath id="clip0_684_9994">
<rect width="60" height="60" fill="white"></rect>
</clipPath>
</defs>
</svg>