<svg xmlns="http://www.w3.org/2000/svg" version="1.1" xmlns:xlink="http://www.w3.org/1999/xlink" viewBox="0 0 60 60">
<g clip-path="url(#clip0_684_9604)">
<path d="M0.0019532 29.9976C0.00237182 24.0644 1.76213 18.2647 5.05872 13.3316C8.3553 8.39861 13.0406 4.5539 18.5223 2.28367C24.0039 0.0134476 30.0356 -0.580329 35.8547 0.577425C41.6738 1.73518 47.0189 4.59247 51.2141 8.78798C55.4093 12.9835 58.2662 18.3288 59.4236 24.148C60.5809 29.9671 59.9867 35.9988 57.7161 41.4803C55.4455 46.9617 51.6004 51.6468 46.6672 54.943C41.7339 58.2393 35.934 59.9986 30.0009 59.9986C26.0612 59.9986 22.1601 59.2226 18.5203 57.7149C14.8805 56.2072 11.5734 53.9973 8.78769 51.2114C6.002 48.4255 3.79234 45.1182 2.28488 41.4783C0.777416 37.8384 0.00167523 33.9373 0.0019532 29.9976Z" fill="#65318F"></path>
<path d="M23.3258 45.8978V14.0977H17.7823C14.6307 16.4873 10.6239 18.604 7.28809 19.9988L9.4534 24.8671C11.57 23.8299 14.6307 22.4329 16.5674 20.9026V45.8978H23.3258Z" fill="white"></path>
<path fill-rule="evenodd" clip-rule="evenodd" d="M51.2462 39.2788V34.3217H47.5082V14.1016H39.2195L26.8838 33.3777V39.2788H41.2049V45.8975H47.5103V39.2788H51.2462ZM41.2028 34.3217H32.332L38.8152 24.1471C40.0852 22.1638 40.9805 20.2228 41.1139 19.6852H41.2028V34.3217Z" fill="white"></path>
</g>
<defs>
<clipPath id="clip0_684_9604">
<rect width="59.9979" height="60" fill="white" transform="translate(0.00195312)"></rect>
</clipPath>
</defs>
</svg>