<svg xmlns="http://www.w3.org/2000/svg" version="1.1" xmlns:xlink="http://www.w3.org/1999/xlink" viewBox="0 0 60 60">
<g clip-path="url(#clip0_684_9576)">
<path d="M0 30C1.47688e-08 24.0667 1.75942 18.2666 5.05577 13.3331C8.35211 8.3997 13.0373 4.55452 18.519 2.28383C24.0007 0.0131389 30.0326 -0.581085 35.8519 0.5763C41.6713 1.73369 47.0168 4.5907 51.2125 8.78606C55.4081 12.9814 58.2655 18.3267 59.4233 24.146C60.5811 29.9653 59.9873 35.9972 57.717 41.4791C55.4467 46.9609 51.6018 51.6464 46.6686 54.9431C41.7355 58.2398 35.9355 59.9996 30.0021 60C22.0454 60 14.4146 56.8394 8.78817 51.2133C3.16174 45.5873 0.000561358 37.9567 0 30" fill="#7AC597"></path>
<path d="M31.9091 19.2733V14.0938H9.66895V19.4088H25.1103L17.3568 33.8151C14.567 38.9925 13.4409 41.6913 13.4409 45.8802H20.7012C20.7012 40.8848 24.9346 31.383 31.9197 19.2733" fill="#25303B"></path>
<path fill-rule="evenodd" clip-rule="evenodd" d="M41.0642 34.5807C41.0642 32.3582 40.063 29.7906 37.6521 29.7906C36.4816 29.7906 35.7767 30.3939 35.1565 31.2893V26.5352H32.7266V39.2841H35.0697V38.8607C35.6236 39.3227 36.3212 39.5772 37.0425 39.5804C39.9847 39.5804 41.0642 36.653 41.0642 34.585V34.5807ZM38.5496 34.9469C38.5496 36.2042 38.1686 37.8764 36.6192 37.8764C35.5164 37.8764 35.1375 37.3071 35.1375 36.6699V33.5478C35.1375 33.0123 35.1883 32.754 35.601 32.3582C35.747 32.2096 35.9213 32.0918 36.1137 32.0118C36.306 31.9318 36.5125 31.8912 36.7208 31.8925C38.2533 31.8925 38.5475 33.7023 38.5475 34.9427" fill="#25303B"></path>
<path fill-rule="evenodd" clip-rule="evenodd" d="M45.5958 27.6414C45.5958 26.9005 45.0793 26.3713 44.2517 26.3713C43.424 26.3713 42.8906 26.9047 42.8906 27.6414C42.8906 28.378 43.4262 28.9114 44.2517 28.9114C45.0772 28.9114 45.5958 28.378 45.5958 27.6414ZM45.4413 30.0883H43.0282V39.2832H45.4413V30.0883Z" fill="#25303B"></path>
<path d="M54.0522 36.5278C54.0522 34.9953 53.1229 34.2905 51.8127 33.8079L51.0126 33.5136C50.5638 33.3591 49.9267 33.0903 49.9267 32.5315C49.9267 32.1187 50.2209 31.6192 51.1967 31.6192C51.8548 31.6345 52.4969 31.8244 53.0573 32.1695L53.7982 30.3957C53.0308 30.0006 52.1805 29.7938 51.3174 29.7925C49.1647 29.7925 47.6999 31.1726 47.6999 32.9104C47.6999 34.2545 48.4937 34.9615 49.6812 35.4271L50.439 35.7192C50.9385 35.9076 51.8 36.1426 51.8 36.839C51.8 37.5608 51.0253 37.7851 50.3882 37.7851C49.6186 37.7681 48.8704 37.5293 48.2334 37.0972L47.4946 38.871C48.319 39.332 49.2468 39.5767 50.1913 39.5822C52.6043 39.5822 54.0522 38.3228 54.0522 36.5321" fill="#25303B"></path>
</g>
<defs>
<clipPath id="clip0_684_9576">
<rect width="60" height="60" fill="white"></rect>
</clipPath>
</defs>
</svg>