<svg xmlns="http://www.w3.org/2000/svg" version="1.1" xmlns:xlink="http://www.w3.org/1999/xlink" viewBox="0 0 60 60">
<g clip-path="url(#clip0_684_9567)">
<path d="M0 30C0 24.0666 1.75947 18.2664 5.05591 13.3329C8.35236 8.39943 13.0377 4.55426 18.5195 2.28363C24.0013 0.0129986 30.0333 -0.581102 35.8527 0.576455C41.6721 1.73401 47.0176 4.59124 51.2132 8.78681C55.4088 12.9824 58.266 18.3279 59.4236 24.1473C60.5811 29.9667 59.987 35.9987 57.7164 41.4805C55.4458 46.9623 51.6006 51.6477 46.6671 54.9441C41.7336 58.2405 35.9334 60 30 60C22.0437 59.9995 14.4134 56.8386 8.78742 51.2126C3.16145 45.5866 0.000561312 37.9563 0 30" fill="#F58F53"></path>
<path d="M40.7806 35.6251C40.7806 30.8499 37.269 25.9433 28.5757 25.5369C28.2603 25.5369 27.8581 25.4925 27.6761 25.4925L28.1248 19.4578H39.555V14.1406H22.8606L21.5906 30.6699C22.6299 30.6699 24.7466 30.7144 26.5479 30.7144C32.4005 30.8054 33.933 33.9593 33.933 36.2559C33.933 39.994 30.8278 41.482 28.3513 41.482C25.8748 41.482 24.0713 40.6692 22.3145 39.4542L19.749 44.4052C22.1811 45.8869 25.0196 46.7061 28.7111 46.7061C35.9629 46.7061 40.7763 41.7064 40.7763 35.6251" fill="#25303B"></path>
</g>
<defs>
<clipPath id="clip0_684_9567">
<rect width="60" height="60" fill="white"></rect>
</clipPath>
</defs>
</svg>