<svg xmlns="http://www.w3.org/2000/svg" version="1.1" xmlns:xlink="http://www.w3.org/1999/xlink" viewBox="0 0 61 60">
<g clip-path="url(#clip0_684_9592)">
<path d="M0.0019532 30C0.0019532 24.0666 1.76142 18.2664 5.05787 13.3329C8.35431 8.39943 13.0397 4.55426 18.5215 2.28363C24.0032 0.0129986 30.0352 -0.581102 35.8547 0.576455C41.6741 1.73401 47.0196 4.59124 51.2152 8.78681C55.4107 12.9824 58.268 18.3279 59.4255 24.1473C60.5831 29.9667 59.989 35.9987 57.7183 41.4805C55.4477 46.9623 51.6025 51.6477 46.6691 54.9441C41.7356 58.2405 35.9354 60 30.002 60C26.0622 60.0003 22.161 59.2245 18.5211 57.717C14.8812 56.2094 11.5739 53.9997 8.78813 51.2138C6.00232 48.428 3.79254 45.1207 2.285 41.4808C0.777458 37.841 0.0016752 33.9397 0.0019532 30Z" fill="#8D653D"></path>
<path d="M25.7938 45.8575V14.0625H20.2523C17.0984 16.448 13.0936 18.5647 9.75977 19.9617L11.923 24.8302C14.0397 23.7951 17.0984 22.396 19.0373 20.8656V45.8575H25.7938Z" fill="white"></path>
<path d="M45.5936 45.8575V14.0625H40.0521C36.9003 16.448 32.8934 18.5647 29.5596 19.9617L31.7228 24.8302C33.8395 23.7951 36.9003 22.396 38.8371 20.8656V45.8575H45.5936Z" fill="white"></path>
</g>
<defs>
<clipPath id="clip0_684_9592">
<rect width="60" height="60" fill="white" transform="translate(0.00195312)"></rect>
</clipPath>
</defs>
</svg>