<svg xmlns="http://www.w3.org/2000/svg" version="1.1" xmlns:xlink="http://www.w3.org/1999/xlink" viewBox="0 0 60 60">
<g clip-path="url(#clip0_684_9573)">
<path d="M0 30C0 24.0666 1.75947 18.2664 5.05591 13.3329C8.35236 8.39943 13.0377 4.55426 18.5195 2.28363C24.0013 0.0129986 30.0333 -0.581102 35.8527 0.576455C41.6721 1.73401 47.0176 4.59124 51.2132 8.78681C55.4088 12.9824 58.266 18.3279 59.4236 24.1473C60.5811 29.9667 59.987 35.9987 57.7164 41.4805C55.4458 46.9623 51.6006 51.6477 46.6671 54.9441C41.7336 58.2405 35.9334 60 30 60C22.0437 59.9995 14.4134 56.8386 8.78742 51.2126C3.16145 45.5866 0.000561312 37.9563 0 30" fill="#F49FB3"></path>
<path d="M41.5232 19.3152V14.1335H19.2725V19.4507H34.7244L26.9751 33.8675C24.1832 39.045 23.0571 41.748 23.0571 45.9327H30.3089C30.3089 40.9352 34.5423 31.427 41.5275 19.3152" fill="#25303B"></path>
</g>
<defs>
<clipPath id="clip0_684_9573">
<rect width="60" height="60" fill="white"></rect>
</clipPath>
</defs>
</svg>