<svg xmlns="http://www.w3.org/2000/svg" version="1.1" xmlns:xlink="http://www.w3.org/1999/xlink" viewBox="0 0 60 60">
<g clip-path="url(#clip0_684_9552)">
<path d="M0 30C0 24.0666 1.75947 18.2664 5.05591 13.3329C8.35236 8.39943 13.0377 4.55426 18.5195 2.28363C24.0013 0.0129986 30.0333 -0.581102 35.8527 0.576455C41.6721 1.73401 47.0176 4.59124 51.2132 8.78681C55.4088 12.9824 58.266 18.3279 59.4236 24.1473C60.5811 29.9667 59.987 35.9987 57.7164 41.4805C55.4458 46.9623 51.6006 51.6477 46.6671 54.9441C41.7336 58.2405 35.9334 60 30 60C22.0437 59.9995 14.4134 56.8386 8.78742 51.2126C3.16145 45.5866 0.000561312 37.9563 0 30" fill="#006FB6"></path>
<path d="M41.0638 45.8909V40.5759H27.9403C28.3446 38.728 31.5387 35.9382 33.1601 34.4501C36.9913 30.983 40.4606 28.4154 40.4606 22.967C40.4606 16.4815 35.1879 13.2302 29.604 13.2302C25.3262 13.2302 22.4877 14.5002 19.4248 17.1482L22.7565 21.5594C23.5249 20.7128 25.4616 18.6786 28.2599 18.6786C31.7271 18.6786 33.5241 20.9752 33.5241 23.7227C33.5241 26.7856 31.2296 29.0843 29.1151 30.9195C24.8817 34.611 21.2304 37.9893 20.4197 41.6829V45.8719L41.0638 45.8909Z" fill="white"></path>
</g>
<defs>
<clipPath id="clip0_684_9552">
<rect width="60" height="60" fill="white"></rect>
</clipPath>
</defs>
</svg>