<svg xmlns="http://www.w3.org/2000/svg" version="1.1" xmlns:xlink="http://www.w3.org/1999/xlink" viewBox="0 0 60 60">
<g clip-path="url(#clip0_684_9558)">
<path d="M0 30C0 24.0666 1.75947 18.2664 5.05591 13.3329C8.35236 8.39943 13.0377 4.55426 18.5195 2.28363C24.0013 0.0129986 30.0333 -0.581102 35.8527 0.576455C41.6721 1.73401 47.0176 4.59124 51.2132 8.78681C55.4088 12.9824 58.266 18.3279 59.4236 24.1473C60.5811 29.9667 59.987 35.9987 57.7164 41.4805C55.4458 46.9623 51.6006 51.6477 46.6671 54.9441C41.7336 58.2405 35.9334 60 30 60C22.0435 60 14.4129 56.8393 8.7868 51.2132C3.16071 45.5871 0 37.9565 0 30" fill="#8AD3DE"></path>
<path fill-rule="evenodd" clip-rule="evenodd" d="M42.506 30.3229C42.506 28.1004 41.5069 25.5328 39.0939 25.5328C37.9212 25.5328 37.2142 26.134 36.5962 27.0293V22.2773H34.1641V35.0262H36.5073V34.6029C37.0613 35.0573 37.755 35.3069 38.4715 35.3099C41.418 35.3099 42.506 32.3825 42.506 30.3145V30.3229ZM39.9892 30.6891C39.9892 31.9464 39.6103 33.6165 38.0588 33.6165C36.956 33.6165 36.5771 33.0492 36.5771 32.4121V29.2879C36.5771 28.7544 36.63 28.4941 37.0428 28.1004C37.1886 27.9516 37.3629 27.8336 37.5553 27.7536C37.7476 27.6736 37.9542 27.6332 38.1625 27.6347C39.6971 27.6347 39.9892 29.4424 39.9892 30.6849" fill="#25303B"></path>
<path fill-rule="evenodd" clip-rule="evenodd" d="M47.0352 23.3843C47.0352 22.6434 46.5187 22.1143 45.689 22.1143C44.8593 22.1143 44.3301 22.6477 44.3301 23.3843C44.3301 24.1209 44.8635 24.6543 45.689 24.6543C46.5145 24.6543 47.0352 24.1188 47.0352 23.3843ZM46.8786 25.8248H44.4677V35.0219H46.8786V25.8248Z" fill="#25303B"></path>
<path d="M55.4911 32.2707C55.4911 30.7382 54.5598 30.0313 53.2517 29.5487L52.4431 29.2566C51.9943 29.102 51.3572 28.8332 51.3572 28.2744C51.3572 27.8511 51.6514 27.3621 52.6272 27.3621C53.2847 27.3764 53.9264 27.5665 54.4857 27.9125L55.2287 26.1387C54.4613 25.7435 53.611 25.5368 52.7479 25.5354C50.5931 25.5354 49.1283 26.9134 49.1283 28.6533C49.1283 29.9974 49.9221 30.7044 51.1138 31.1679L51.8695 31.46C52.3711 31.6505 53.2284 31.8834 53.2284 32.5798C53.2284 33.3037 52.4558 33.5281 51.8187 33.5281C51.0484 33.5094 50.2998 33.2699 49.6617 32.838L48.9209 34.6139C49.7504 35.0733 50.6821 35.3164 51.6303 35.3209C54.0412 35.3209 55.4869 34.0509 55.4869 32.2707" fill="#25303B"></path>
<path d="M30.7746 36.1814C30.7746 31.7236 28.1202 29.0206 24.6086 28.3496V28.2607C27.9953 27.0034 29.7416 24.3892 29.7416 21.1041C29.7416 16.8707 26.0501 12.9993 19.5666 12.9993C15.5576 12.9993 12.6345 14.0343 9.9272 15.8356L12.228 20.5157C13.8413 19.0444 15.9438 18.2251 18.1273 18.2169C21.4569 18.2169 22.9957 20.0648 22.9957 22.0905C22.9957 24.5205 21.061 26.144 17.9537 26.144H14.6051V31.4082H17.9008C21.1415 31.4082 23.9334 32.6782 23.9334 36.3168C23.9334 39.0178 21.6389 41.1853 17.9431 41.1853C15.2443 41.1853 13.0387 40.0592 11.6883 39.113L9.20752 44.0259C11.3242 45.2832 13.8473 46.4114 18.394 46.4114C25.7792 46.4114 30.7746 41.7758 30.7746 36.192" fill="#25303B"></path>
</g>
<defs>
<clipPath id="clip0_684_9558">
<rect width="60" height="60" fill="white"></rect>
</clipPath>
</defs>
</svg>