<svg xmlns="http://www.w3.org/2000/svg" version="1.1" xmlns:xlink="http://www.w3.org/1999/xlink" viewBox="0 0 60 60">
<g clip-path="url(#clip0_684_9555)">
<path d="M0 30C0 24.0666 1.75947 18.2664 5.05591 13.3329C8.35236 8.39943 13.0377 4.55426 18.5195 2.28363C24.0013 0.0129986 30.0333 -0.581102 35.8527 0.576455C41.6721 1.73401 47.0176 4.59124 51.2132 8.78681C55.4088 12.9824 58.266 18.3279 59.4236 24.1473C60.5811 29.9667 59.987 35.9987 57.7164 41.4805C55.4458 46.9623 51.6006 51.6477 46.6671 54.9441C41.7336 58.2405 35.9334 60 30 60C22.0435 60 14.4129 56.8393 8.7868 51.2132C3.16071 45.5871 0 37.9565 0 30" fill="#9B9842"></path>
<path d="M41.138 36.3166C41.138 31.8589 38.4816 29.1558 34.9657 28.4848V28.3959C38.3525 27.1365 40.103 24.5224 40.103 21.2351C40.103 17.0017 36.4051 13.1282 29.9237 13.1282C25.9147 13.1282 22.9852 14.1632 20.2822 15.9646L22.5809 20.6488C24.1952 19.178 26.2984 18.3594 28.4823 18.3522C31.8161 18.3522 33.3507 20.198 33.3507 22.2236C33.3507 24.6578 31.4181 26.2814 28.3087 26.2814H24.977V31.5392H28.2579C31.5007 31.5392 34.2905 32.8093 34.2905 36.4479C34.2905 39.153 31.9939 41.3163 28.3024 41.3163C25.5993 41.3163 23.3916 40.1902 22.039 39.2461L19.5625 44.1548C21.6792 45.4142 24.2023 46.5382 28.7532 46.5382C36.1363 46.5382 41.138 41.9026 41.138 36.3145" fill="white"></path>
</g>
<defs>
<clipPath id="clip0_684_9555">
<rect width="60" height="60" fill="white"></rect>
</clipPath>
</defs>
</svg>