<svg xmlns="http://www.w3.org/2000/svg" version="1.1" xmlns:xlink="http://www.w3.org/1999/xlink" viewBox="0 0 61 60">
<g clip-path="url(#clip0_684_9600)">
<path d="M0.00195313 30C0.00195313 24.0666 1.76142 18.2664 5.05787 13.3329C8.35431 8.39943 13.0397 4.55426 18.5215 2.28363C24.0032 0.0129986 30.0352 -0.581102 35.8547 0.576455C41.6741 1.73401 47.0196 4.59124 51.2152 8.78681C55.4107 12.9824 58.268 18.3279 59.4255 24.1473C60.5831 29.9667 59.989 35.9987 57.7183 41.4805C55.4477 46.9623 51.6025 51.6477 46.6691 54.9441C41.7356 58.2405 35.9354 60 30.002 60C22.0455 60 14.4148 56.8393 8.78875 51.2132C3.16266 45.5871 0.00195313 37.9565 0.00195312 30" fill="#8AD3DE"></path>
<path d="M24.0946 45.8596V14.0625H18.5552C15.4034 16.448 11.3965 18.5668 8.06055 19.9617L10.2238 24.8302C12.3405 23.793 15.4034 22.3981 17.3402 20.8656V45.8638L24.0946 45.8596Z" fill="#25303B"></path>
<path d="M50.1107 36.4079C50.1107 31.9459 47.4542 29.245 43.9384 28.5761V28.4872C47.3251 27.2278 49.0756 24.6158 49.0756 21.3286C49.0756 17.0952 45.3798 13.2195 38.8964 13.2195C34.8874 13.2195 31.96 14.2545 29.2548 16.0559L31.5557 20.7422C33.1688 19.2706 35.2714 18.4512 37.4549 18.4435C40.7866 18.4435 42.3233 20.2914 42.3233 22.3192C42.3233 24.7513 40.3908 26.3727 37.2814 26.3727H33.9433V31.6242H37.2284C40.4733 31.6242 43.2632 32.8942 43.2632 36.5349C43.2632 39.238 40.9665 41.4034 37.275 41.4034C34.572 41.4034 32.3643 40.2794 31.0159 39.3332L28.5352 44.2397C30.6519 45.4992 33.175 46.6231 37.7259 46.6231C45.111 46.6231 50.1107 41.9876 50.1107 36.4016" fill="#25303B"></path>
</g>
<defs>
<clipPath id="clip0_684_9600">
<rect width="60" height="60" fill="white" transform="translate(0.00195312)"></rect>
</clipPath>
</defs>
</svg>