<svg xmlns="http://www.w3.org/2000/svg" version="1.1" xmlns:xlink="http://www.w3.org/1999/xlink" viewBox="0 0 61 60">
<g clip-path="url(#clip0_684_9588)">
<path d="M0.00195313 30C0.00195313 24.0666 1.76142 18.2664 5.05787 13.3329C8.35431 8.39943 13.0397 4.55426 18.5215 2.28363C24.0032 0.0129986 30.0352 -0.581102 35.8547 0.576455C41.6741 1.73401 47.0196 4.59124 51.2152 8.78681C55.4107 12.9824 58.268 18.3279 59.4255 24.1473C60.5831 29.9667 59.989 35.9987 57.7183 41.4805C55.4477 46.9623 51.6025 51.6477 46.6691 54.9441C41.7356 58.2405 35.9354 60 30.002 60C22.0455 60 14.4148 56.8393 8.78875 51.2132C3.16266 45.5871 0.00195313 37.9565 0.00195312 30" fill="#DFAF47"></path>
<path d="M24.0602 45.9182V14.1211H18.5187C15.3712 16.5108 11.36 18.6275 8.02832 20.0225L10.1874 24.8909C12.3041 23.8537 15.3712 22.4588 17.3037 20.9263V45.9245L24.0602 45.9182Z" fill="#25303B"></path>
<path fill-rule="evenodd" clip-rule="evenodd" d="M51.7448 29.9739C51.7448 22.6332 49.8524 13.1758 40.2574 13.1758C30.6624 13.1758 28.5923 22.6332 28.5923 29.9739C28.5923 37.3146 30.4825 46.7805 40.0775 46.7805C49.6725 46.7805 51.7448 37.3252 51.7448 29.9824V29.9739ZM44.8549 29.9824C44.8549 33.1342 44.6707 41.4676 40.1685 41.4676C35.6663 41.4676 35.4398 33.1786 35.4398 29.9824C35.4398 26.7396 35.5753 18.5522 40.1685 18.5522C44.7173 18.5522 44.8549 26.6613 44.8549 29.993" fill="#25303B"></path>
</g>
<defs>
<clipPath id="clip0_684_9588">
<rect width="60" height="60" fill="white" transform="translate(0.00195312)"></rect>
</clipPath>
</defs>
</svg>