<svg xmlns="http://www.w3.org/2000/svg" version="1.1" xmlns:xlink="http://www.w3.org/1999/xlink" viewBox="0 0 60 60">
<g clip-path="url(#clip0_684_9549)">
<path d="M0 30C0 24.0666 1.75947 18.2664 5.05591 13.3329C8.35236 8.39943 13.0377 4.55426 18.5195 2.28363C24.0013 0.0129986 30.0333 -0.581102 35.8527 0.576455C41.6721 1.73401 47.0176 4.59124 51.2132 8.78681C55.4088 12.9824 58.266 18.3279 59.4236 24.1473C60.5811 29.9667 59.987 35.9987 57.7164 41.4805C55.4458 46.9623 51.6006 51.6477 46.6671 54.9441C41.7336 58.2405 35.9334 60 30 60C22.0435 60 14.4129 56.8393 8.7868 51.2132C3.16071 45.5871 0 37.9565 0 30" fill="#FFCC30"></path>
<path d="M34.6274 45.8723V14.0815H29.088C25.9405 16.4649 21.9315 18.5838 18.5977 19.9787L20.7609 24.8471C22.8776 23.8099 25.9405 22.4129 27.873 20.8825V45.8723H34.6274Z" fill="#25303B"></path>
</g>
<defs>
<clipPath id="clip0_684_9549">
<rect width="60" height="60" fill="white"></rect>
</clipPath>
</defs>
</svg>