<svg xmlns="http://www.w3.org/2000/svg" version="1.1" xmlns:xlink="http://www.w3.org/1999/xlink" viewBox="0 0 60 60">
<g clip-path="url(#clip0_684_9989)">
<path d="M22.4368 22.7358V41.6993H17.3187V22.7358H10.2129V18.5786H29.5278V22.7358H22.4368Z" fill="#25303B"></path>
<path d="M34.7945 41.7006V38.6483C35.383 35.9643 38.0352 33.5089 41.1129 30.8165C42.6517 29.4745 44.3197 27.8023 44.3197 25.5755C44.3197 23.5816 43.0094 21.9094 40.4906 21.9094C38.4607 21.9094 37.0531 23.3911 36.4943 24.0049L34.0791 20.8066C36.3059 18.8741 38.3675 17.9575 41.4875 17.9575C45.5474 17.9575 49.3765 20.3155 49.3765 25.0294C49.3765 28.9898 46.8576 30.8567 44.0847 33.3777C42.9057 34.4572 40.5816 36.4871 40.2874 37.8228H49.8125V41.7006H34.7945Z" fill="#25303B"></path>
<path d="M57.0006 0H2.99937C1.34286 0 0 1.34286 0 2.99937V6.00085C0 7.65735 1.34286 9.00021 2.99937 9.00021H57.0006C58.6571 9.00021 60 7.65735 60 6.00085V2.99937C60 1.34286 58.6571 0 57.0006 0Z" fill="#B94E9A"></path>
<path d="M60.002 57.0008V53.9994C60.002 52.3429 58.6591 51 57.0026 51H3.00134C1.34483 51 0.00197601 52.3429 0.00197601 53.9994V57.0008C0.00197601 58.6573 1.34483 60.0002 3.00134 60.0002H57.0026C58.6591 60.0002 60.002 58.6573 60.002 57.0008Z" fill="#B94E9A"></path>
</g>
<defs>
<clipPath id="clip0_684_9989">
<rect width="60" height="60" fill="white"></rect>
</clipPath>
</defs>
</svg>