<svg xmlns="http://www.w3.org/2000/svg" version="1.1" xmlns:xlink="http://www.w3.org/1999/xlink" viewBox="0 0 60 60">
<g clip-path="url(#clip0_684_9564)">
<path d="M0 30C1.47693e-08 24.0665 1.75952 18.2662 5.05606 13.3327C8.3526 8.39917 13.0381 4.55399 18.52 2.28343C24.0019 0.0128582 30.034 -0.581118 35.8535 0.57661C41.673 1.73434 47.0185 4.59177 51.214 8.78756C55.4094 12.9833 58.2665 18.329 59.4238 24.1486C60.5811 29.9682 59.9867 36.0002 57.7158 41.482C55.4448 46.9637 51.5993 51.6489 46.6656 54.9451C41.7318 58.2413 35.9314 60.0004 29.9979 60C22.0418 59.9995 14.4117 56.8385 8.78605 51.2125C3.16041 45.5864 -1.98038e-08 37.9561 0 30" fill="#B94E9A"></path>
<path fill-rule="evenodd" clip-rule="evenodd" d="M40.0252 39.2307V34.2755H36.2913V14.0547H28.0002L15.6641 33.3294V39.2307H29.9857V45.8497H36.2934V39.2307H40.0252ZM29.9835 34.2755H21.1125L27.5959 24.1006C28.8659 22.1172 29.7592 20.1783 29.8946 19.6385H29.9835V34.2755Z" fill="white"></path>
</g>
<defs>
<clipPath id="clip0_684_9564">
<rect width="60" height="60" fill="white"></rect>
</clipPath>
</defs>
</svg>