<svg xmlns="http://www.w3.org/2000/svg" version="1.1" xmlns:xlink="http://www.w3.org/1999/xlink" viewBox="0 0 60 60">
<g clip-path="url(#clip0_684_9984)">
<path d="M24.3423 22.7358V41.6993H19.2347V22.7358H12.1289V18.5786H31.4438V22.7358H24.3423Z" fill="#25303B"></path>
<path d="M42.9691 41.7003V23.5221C41.5615 24.6355 39.3347 25.7171 37.7959 26.4029L36.2168 22.8617C38.6404 21.8457 41.5551 20.3089 43.8369 18.5732H47.8587V41.7003H42.9691Z" fill="#25303B"></path>
<path d="M57.0006 0H2.99937C1.34286 0 0 1.34286 0 2.99937V6.00085C0 7.65735 1.34286 9.00021 2.99937 9.00021H57.0006C58.6571 9.00021 60 7.65735 60 6.00085V2.99937C60 1.34286 58.6571 0 57.0006 0Z" fill="#006FB6"></path>
<path d="M60.002 57.0008V53.9994C60.002 52.3429 58.6591 51 57.0026 51H3.00134C1.34483 51 0.00197601 52.3429 0.00197601 53.9994V57.0008C0.00197601 58.6573 1.34483 60.0002 3.00134 60.0002H57.0026C58.6591 60.0002 60.002 58.6573 60.002 57.0008Z" fill="#006FB6"></path>
</g>
<defs>
<clipPath id="clip0_684_9984">
<rect width="60" height="60" fill="white"></rect>
</clipPath>
</defs>
</svg>