<svg xmlns="http://www.w3.org/2000/svg" version="1.1" xmlns:xlink="http://www.w3.org/1999/xlink" viewBox="0 0 60 60">
<g clip-path="url(#clip0_684_9582)">
<path d="M0 30C0 24.0666 1.75947 18.2664 5.05591 13.3329C8.35236 8.39943 13.0377 4.55426 18.5195 2.28363C24.0013 0.0129986 30.0333 -0.581102 35.8527 0.576455C41.6721 1.73401 47.0176 4.59124 51.2132 8.78681C55.4088 12.9824 58.266 18.3279 59.4236 24.1473C60.5811 29.9667 59.987 35.9987 57.7164 41.4805C55.4458 46.9623 51.6006 51.6477 46.6671 54.9441C41.7336 58.2405 35.9334 60 30 60C22.0435 60 14.4129 56.8393 8.7868 51.2132C3.16071 45.5871 0 37.9565 0 30" fill="#C4A4CC"></path>
<path fill-rule="evenodd" clip-rule="evenodd" d="M41.3517 37.0418C41.3517 32.8507 38.7863 30.1477 35.8483 28.757C38.8223 26.9515 40.3527 24.4326 40.3527 21.4565C40.3527 16.006 35.7129 13.2585 30.1248 13.2585C24.6806 13.2585 19.9032 16.9077 19.9032 22.1783C19.9032 25.4677 21.6177 27.6288 24.3631 29.3391C21.3002 30.9139 18.9126 33.5725 18.9126 37.8059C18.9126 42.6257 22.9216 46.8548 29.9893 46.8548C36.5214 46.8548 41.3412 43.0744 41.3412 37.0397L41.3517 37.0418ZM34.2904 21.8693C34.2904 23.8505 32.4891 25.9228 30.819 26.6869C28.7934 25.8402 26.1835 24.2125 26.1835 21.6068C26.1835 19.3991 27.7583 17.8687 30.2348 17.8687C32.8511 17.8687 34.2904 19.6679 34.2904 21.8778V21.8693ZM34.7857 37.5413C34.7857 40.0644 33.1199 42.179 30.0994 42.179C27.0386 42.179 25.3262 39.7046 25.3262 37.0989C25.3262 34.6203 27.3963 32.3702 29.4686 31.5574C32.1737 32.91 34.7857 34.6647 34.7857 37.5498" fill="#25303B"></path>
</g>
<defs>
<clipPath id="clip0_684_9582">
<rect width="60" height="60" fill="white"></rect>
</clipPath>
</defs>
</svg>