<svg xmlns="http://www.w3.org/2000/svg" version="1.1" xmlns:xlink="http://www.w3.org/1999/xlink" viewBox="0 0 60 60">
<g clip-path="url(#clip0_684_9570)">
<path d="M0 30C0 24.0666 1.75947 18.2664 5.05591 13.3329C8.35236 8.39943 13.0377 4.55426 18.5195 2.28363C24.0013 0.0129986 30.0333 -0.581102 35.8527 0.576455C41.6721 1.73401 47.0176 4.59124 51.2132 8.78681C55.4088 12.9824 58.266 18.3279 59.4236 24.1473C60.5811 29.9667 59.987 35.9987 57.7164 41.4805C55.4458 46.9623 51.6006 51.6477 46.6671 54.9441C41.7336 58.2405 35.9334 60 30 60C22.0435 60 14.4129 56.8393 8.7868 51.2132C3.16071 45.5871 0 37.9565 0 30" fill="#7AC597"></path>
<path fill-rule="evenodd" clip-rule="evenodd" d="M40.8225 35.7416C40.8225 29.7958 36.5891 26.3308 31.3186 26.3308C27.8937 26.3308 25.8151 27.5458 24.7441 28.4877C25.1949 22.0931 28.4356 18.5392 32.8955 18.5392C34.7413 18.5392 36.4092 18.9435 37.2644 19.3033L38.255 13.8994C36.6888 13.5393 35.0868 13.3583 33.4797 13.3596C23.3026 13.3596 18.123 21.2867 18.123 32.321C18.123 40.7434 21.2304 46.7781 29.9236 46.7781C36.587 46.7781 40.8225 42.096 40.8225 35.7437V35.7416ZM34.4259 36.4634C34.4259 39.2151 32.8045 41.7785 29.6506 41.7785C26.4078 41.7785 24.6531 38.8532 24.6531 35.8326C24.6531 34.8865 24.6531 33.6249 25.0129 33.0809C25.6479 32.0903 27.263 31.3241 29.2908 31.3241C32.4446 31.3241 34.4259 33.4873 34.4259 36.4592" fill="#25303B"></path>
</g>
<defs>
<clipPath id="clip0_684_9570">
<rect width="60" height="60" fill="white"></rect>
</clipPath>
</defs>
</svg>