<svg xmlns="http://www.w3.org/2000/svg" version="1.1" xmlns:xlink="http://www.w3.org/1999/xlink" viewBox="0 0 61 60">
<g clip-path="url(#clip0_684_9596)">
<path d="M0.0019532 30C0.0019532 24.0666 1.76142 18.2664 5.05787 13.3329C8.35431 8.39943 13.0397 4.55426 18.5215 2.28363C24.0032 0.0129986 30.0352 -0.581102 35.8547 0.576455C41.6741 1.73401 47.0196 4.59124 51.2152 8.78681C55.4107 12.9824 58.268 18.3279 59.4255 24.1473C60.5831 29.9667 59.989 35.9987 57.7183 41.4805C55.4477 46.9623 51.6025 51.6477 46.6691 54.9441C41.7356 58.2405 35.9354 60 30.002 60C26.0622 60.0003 22.161 59.2245 18.5211 57.717C14.8812 56.2094 11.5739 53.9997 8.78813 51.2138C6.00232 48.428 3.79254 45.1207 2.285 41.4808C0.777458 37.841 0.0016752 33.9397 0.0019532 30Z" fill="#008B5B"></path>
<path d="M23.6924 45.9082V14.1133H18.1509C15.0012 16.5094 10.9922 18.6261 7.65625 20.0104L9.82164 24.8788C11.9383 23.8416 15.0012 22.4361 16.9359 20.91V45.9082H23.6924Z" fill="white"></path>
<path d="M49.662 45.9107V40.5956H36.5575C36.9618 38.7499 40.1559 35.9601 41.7794 34.4699C45.6085 31.0049 49.0778 28.4373 49.0778 22.9868C49.0778 16.5013 43.8072 13.25 38.2212 13.25C33.9434 13.25 31.107 14.52 28.042 17.1701L31.3758 21.5919C32.142 20.7452 34.0788 18.7111 36.8792 18.7111C40.3464 18.7111 42.1435 21.0056 42.1435 23.7552C42.1435 26.818 39.8511 29.1147 37.7344 30.952C33.501 34.6456 29.8497 38.0217 29.039 41.7154V45.9043L49.662 45.9107Z" fill="white"></path>
</g>
<defs>
<clipPath id="clip0_684_9596">
<rect width="60" height="60" fill="white" transform="translate(0.00195312)"></rect>
</clipPath>
</defs>
</svg>