<svg xmlns="http://www.w3.org/2000/svg" version="1.1" xmlns:xlink="http://www.w3.org/1999/xlink" viewBox="0 0 60 60">
<g clip-path="url(#clip0_684_10000)">
<path d="M33.1945 42.2768C29.8861 42.2768 28.053 41.4598 26.5142 40.5433L28.3155 36.9724C29.644 37.9257 31.2315 38.4514 32.8664 38.4795C35.5525 38.4795 37.2204 36.9068 37.2204 34.9425C37.2204 32.2903 35.1926 31.3737 32.8346 31.3737H30.4449V27.5425H32.8664C35.1249 27.5425 36.5325 26.3635 36.5325 24.596C36.5325 23.1144 35.4212 21.7808 32.9976 21.7808C31.4104 21.7858 29.8817 22.3811 28.7092 23.4509L27.0391 20.0451C28.9992 18.7349 31.1328 17.9919 34.0454 17.9919C38.7593 17.9919 41.4538 20.8072 41.4538 23.887C41.4538 26.2767 40.1838 28.1754 37.72 29.0919V29.1575C40.2748 29.6486 42.2074 31.6129 42.2074 34.8557C42.1989 38.9049 38.5645 42.2768 33.1945 42.2768Z" fill="#25303B"></path>
<path d="M51.5051 37.3539C50.5188 37.3539 49.3567 36.958 48.692 36.3421V36.9348H45.335V18.6719H48.8148V25.4834C49.7038 24.2007 50.7198 23.3371 52.3942 23.3371C55.8486 23.3371 57.2795 27.0138 57.2795 30.1973C57.2795 33.1586 55.7237 37.3539 51.5051 37.3539ZM51.0606 26.347C50.7623 26.3459 50.4667 26.4043 50.1912 26.5188C49.9158 26.6333 49.6659 26.8016 49.4562 27.0138C48.8635 27.5811 48.7894 27.9515 48.7894 28.7071V33.1755C48.7894 34.0878 49.3334 34.9006 50.9061 34.9006C53.1287 34.9006 53.6705 32.5066 53.6705 30.7074C53.6705 28.9082 53.2557 26.347 51.0606 26.347Z" fill="#25303B"></path>
<path d="M14.8022 22.7609V41.7159H9.69463V22.7609H2.58887V18.6016H21.9038V22.7609H14.8022Z" fill="#25303B"></path>
<path d="M57.0006 0H2.99937C1.34286 0 0 1.34286 0 2.99937V6.00085C0 7.65735 1.34286 9.00021 2.99937 9.00021H57.0006C58.6571 9.00021 60 7.65735 60 6.00085V2.99937C60 1.34286 58.6571 0 57.0006 0Z" fill="#008B5B"></path>
<path d="M60.002 57.0008V53.9994C60.002 52.3429 58.6591 51 57.0026 51H3.00134C1.34483 51 0.00197601 52.3429 0.00197601 53.9994V57.0008C0.00197601 58.6573 1.34483 60.0002 3.00134 60.0002H57.0026C58.6591 60.0002 60.002 58.6573 60.002 57.0008Z" fill="#008B5B"></path>
</g>
<defs>
<clipPath id="clip0_684_10000">
<rect width="60" height="60" fill="white"></rect>
</clipPath>
</defs>
</svg>