<svg xmlns="http://www.w3.org/2000/svg" version="1.1" xmlns:xlink="http://www.w3.org/1999/xlink" viewBox="0 0 60 60">
<g clip-path="url(#clip0_684_9394)">
<path d="M46.4997 0H13.5003C6.0443 0 0 6.0443 0 13.5003V46.4997C0 53.9557 6.0443 60 13.5003 60H46.4997C53.9557 60 60 53.9557 60 46.4997V13.5003C60 6.0443 53.9557 0 46.4997 0Z" fill="#EB212C"></path>
<path d="M37.5633 45.8637L35.582 39.8332H23.8343L21.8531 45.8637H14.9209L26.1733 14.0391H33.7828L45.086 45.8637H37.5633ZM31.1708 26.2482C30.5574 24.3545 30.1057 22.4121 29.8204 20.4421H29.7315C29.596 21.6126 28.9673 24.2225 28.29 26.2482L25.5891 34.5668H33.8675L31.1708 26.2482Z" fill="white"></path>
</g>
<defs>
<clipPath id="clip0_684_9394">
<rect width="60" height="60" fill="white"></rect>
</clipPath>
</defs>
</svg>