<svg xmlns="http://www.w3.org/2000/svg" version="1.1" xmlns:xlink="http://www.w3.org/1999/xlink" viewBox="0 0 60 60">
<g clip-path="url(#clip0_684_9395)">
<path d="M46.4997 0H13.5003C6.0443 0 0 6.0443 0 13.5003V46.4997C0 53.9557 6.0443 60 13.5003 60H46.4997C53.9557 60 60 53.9557 60 46.4997V13.5003C60 6.0443 53.9557 0 46.4997 0Z" fill="#5091CB"></path>
<path d="M29.2572 45.8634H17.6895V14.0853H29.7546C35.6962 14.0853 41.278 15.7046 41.278 22.1415C41.278 25.4287 38.666 27.9031 36.1979 28.354V28.4429C39.5274 28.8938 42.3215 31.5037 42.3215 36.0059C42.313 44.0282 35.2898 45.8634 29.2572 45.8634ZM28.1777 19.4046H24.7127V26.6966H28.2666C31.9581 26.6966 34.3902 26.1124 34.3902 23.0982C34.3902 20.1624 32.2291 19.3961 28.1777 19.3961V19.4046ZM28.4931 31.7386H24.7127V40.6055H28.8529C33.3086 40.6055 35.0633 39.2106 35.0633 35.8344C35.0633 32.3144 31.6893 31.7301 28.4931 31.7301V31.7386Z" fill="white"></path>
</g>
<defs>
<clipPath id="clip0_684_9395">
<rect width="60" height="60" fill="white"></rect>
</clipPath>
</defs>
</svg>