<svg xmlns="http://www.w3.org/2000/svg" version="1.1" xmlns:xlink="http://www.w3.org/1999/xlink" viewBox="0 0 60 60">
<g clip-path="url(#clip0_684_9397)">
<path d="M46.4997 0H13.5003C6.0443 0 0 6.0443 0 13.5003V46.4997C0 53.9557 6.0443 60 13.5003 60H46.4997C53.9557 60 60 53.9557 60 46.4997V13.5003C60 6.0443 53.9557 0 46.4997 0Z" fill="#008B5B"></path>
<path d="M26.6135 45.8634H17.6577V14.0853H26.9289C36.2021 14.0853 46.1908 16.1555 46.1908 29.2536C46.1951 43.1624 36.3376 45.8634 26.6135 45.8634ZM27.9195 19.6163H24.6788V40.3599H28.1523C34.2717 40.3599 38.9475 38.021 38.9475 29.6939C38.9475 20.791 32.2397 19.6226 27.9195 19.6226V19.6163Z" fill="white"></path>
</g>
<defs>
<clipPath id="clip0_684_9397">
<rect width="60" height="60" fill="white"></rect>
</clipPath>
</defs>
</svg>