<svg xmlns="http://www.w3.org/2000/svg" version="1.1" xmlns:xlink="http://www.w3.org/1999/xlink" viewBox="0 0 60 60">
<g clip-path="url(#clip0_684_10016)">
<path d="M21.9502 22.7358V41.6993H16.8426V22.7358H9.73682V18.5786H29.0517V22.7358H21.9502Z" fill="#25303B"></path>
<path d="M42.3339 42.2486C36.0134 42.2486 33.7549 37.8628 33.7549 31.7413C33.7549 23.719 37.5205 17.9573 44.9184 17.9573C46.0866 17.9557 47.2512 18.0871 48.3897 18.3489L47.6701 22.2796C46.6547 21.9015 45.5785 21.7128 44.495 21.7229C41.2522 21.7229 38.8963 24.3095 38.5683 28.9578C39.3536 28.2699 40.8606 27.3872 43.3478 27.3872C47.179 27.3872 50.2567 29.9061 50.2567 34.2284C50.263 38.8449 47.1853 42.2486 42.3339 42.2486ZM41.8745 31.0195C40.3929 31.0195 39.2244 31.5783 38.7651 32.2895C38.5048 32.6811 38.5048 33.5976 38.5048 34.2855C38.5048 36.4784 39.7748 38.6057 42.137 38.6057C44.4294 38.6057 45.6063 36.7409 45.6063 34.7449C45.6126 32.5985 44.1733 31.0195 41.8809 31.0195H41.8745Z" fill="#25303B"></path>
<path d="M57.0006 0H2.99937C1.34286 0 0 1.34286 0 2.99937V6.00085C0 7.65735 1.34286 9.00021 2.99937 9.00021H57.0006C58.6571 9.00021 60 7.65735 60 6.00085V2.99937C60 1.34286 58.6571 0 57.0006 0Z" fill="#EB212C"></path>
<path d="M60.002 57.0008V53.9994C60.002 52.3429 58.6591 51 57.0026 51H3.00134C1.34483 51 0.00197601 52.3429 0.00197601 53.9994V57.0008C0.00197601 58.6573 1.34483 60.0002 3.00134 60.0002H57.0026C58.6591 60.0002 60.002 58.6573 60.002 57.0008Z" fill="#EB212C"></path>
</g>
<defs>
<clipPath id="clip0_684_10016">
<rect width="60" height="60" fill="white"></rect>
</clipPath>
</defs>
</svg>