<svg xmlns="http://www.w3.org/2000/svg" version="1.1" xmlns:xlink="http://www.w3.org/1999/xlink" viewBox="0 0 60 60">
<g clip-path="url(#clip0_684_10026)">
<path d="M22.0981 22.734V41.6975H16.9905V22.734H9.88477V18.5747H29.2102V22.734H22.0981Z" fill="#25303B"></path>
<path d="M41.8662 42.3116C36.7269 42.3116 33.8228 39.2339 33.8228 35.7307C33.8228 32.6552 35.5563 30.7226 37.7831 29.5754C35.7849 28.3329 34.5424 26.7623 34.5424 24.3704C34.5424 20.5392 38.0117 17.887 41.9742 17.887C46.0319 17.887 49.4059 19.8851 49.4059 23.8476C49.4059 26.0087 48.2925 27.8418 46.1335 29.1393C48.2502 30.1532 50.1256 32.1197 50.1256 35.1635C50.115 39.562 46.6119 42.3116 41.8662 42.3116ZM41.4725 31.182C39.9654 31.7704 38.4604 33.4066 38.4604 35.2037C38.4604 37.1087 39.7051 38.9037 41.9318 38.9037C44.1247 38.9037 45.3355 37.3648 45.3355 35.5339C45.3355 33.4426 43.4368 32.1726 41.4725 31.182ZM42.0292 21.2335C40.2279 21.2335 39.0828 22.3469 39.0828 23.9513C39.0828 25.8563 40.9878 27.029 42.4547 27.6513C43.6654 27.0946 44.9757 25.5875 44.9757 24.1482C44.9757 22.5374 43.9279 21.2271 42.0292 21.2271V21.2335Z" fill="#25303B"></path>
<path d="M57.0006 0H2.99937C1.34286 0 0 1.34286 0 2.99937V6.00085C0 7.65735 1.34286 9.00021 2.99937 9.00021H57.0006C58.6571 9.00021 60 7.65735 60 6.00085V2.99937C60 1.34286 58.6571 0 57.0006 0Z" fill="#9B9842"></path>
<path d="M60.002 57.0008V53.9994C60.002 52.3429 58.6591 51 57.0026 51H3.00134C1.34483 51 0.00197601 52.3429 0.00197601 53.9994V57.0008C0.00197601 58.6573 1.34483 60.0002 3.00134 60.0002H57.0026C58.6591 60.0002 60.002 58.6573 60.002 57.0008Z" fill="#9B9842"></path>
</g>
<defs>
<clipPath id="clip0_684_10026">
<rect width="60" height="60" fill="white"></rect>
</clipPath>
</defs>
</svg>