<svg xmlns="http://www.w3.org/2000/svg" version="1.1" xmlns:xlink="http://www.w3.org/1999/xlink" viewBox="0 0 60 60">
<g clip-path="url(#clip0_684_9396)">
<path d="M46.4997 0H13.5003C6.0443 0 0 6.0443 0 13.5003V46.4997C0 53.9557 6.0443 60 13.5003 60H46.4997C53.9557 60 60 53.9557 60 46.4997V13.5003C60 6.0443 53.9557 0 46.4997 0Z" fill="#FFCC30"></path>
<path d="M31.3845 46.6281C23.3262 46.6281 15.6299 41.3173 15.6299 30.3295C15.6299 20.834 21.1651 13.2266 31.3845 13.2266C35.3004 13.2266 38.1812 14.0351 40.4757 15.0723L38.1812 20.8827C36.2155 19.7811 34.0039 19.1929 31.7507 19.1724C26.8823 19.1724 22.9304 22.3686 22.9304 30.0205C22.9304 37.3125 27.7014 40.6886 32.2926 40.6886C34.5238 40.6919 36.7156 40.1008 38.6427 38.9762L40.5329 44.4246C38.1008 45.7222 34.623 46.6281 31.3845 46.6281Z" fill="#25303B"></path>
</g>
<defs>
<clipPath id="clip0_684_9396">
<rect width="60" height="60" fill="white"></rect>
</clipPath>
</defs>
</svg>