<svg xmlns="http://www.w3.org/2000/svg" version="1.1" xmlns:xlink="http://www.w3.org/1999/xlink" viewBox="0 0 60 60">
<path d="M46.4997 0H13.5003C6.0443 0 0 6.0443 0 13.5003V46.4997C0 53.9557 6.0443 60 13.5003 60H46.4997C53.9557 60 60 53.9557 60 46.4997V13.5003C60 6.0443 53.9557 0 46.4997 0Z" fill="#F58F53"></path>
<path d="M30.4807 34.6999H27.2442V45.8634H20.2231V14.0853H29.9896C37.3282 14.0853 43.6296 16.0644 43.6296 23.9428C43.6296 33.1695 35.9312 34.6999 30.4807 34.6999ZM30.3897 19.5316H27.2442V29.3002H30.4807C33.0906 29.3002 36.5112 28.4895 36.5112 24.3937C36.5175 20.0714 32.7371 19.5316 30.396 19.5316H30.3897Z" fill="#25303B"></path>
</svg>