<svg xmlns="http://www.w3.org/2000/svg" version="1.1" xmlns:xlink="http://www.w3.org/1999/xlink" viewBox="0 0 60 60">
<g clip-path="url(#clip0_7111_174778)">
<path d="M46.4997 0H13.5003C6.0443 0 0 6.0443 0 13.5003V46.4997C0 53.9557 6.0443 60 13.5003 60H46.4997C53.9557 60 60 53.9557 60 46.4997V13.5003C60 6.0443 53.9557 0 46.4997 0Z" fill="#B6134C"></path>
<path d="M30.0572 46.6275C20.7818 46.6275 16.3262 42.3517 16.3262 33.8003V14.0853H23.3494V33.5759C23.3494 37.7606 25.1951 40.9124 30.1906 40.9124C35.1436 40.9124 36.8539 37.7606 36.8539 33.5759V14.0853H43.6951V33.8003C43.6845 42.3517 39.4532 46.6275 30.0572 46.6275Z" fill="white"></path>
</g>
<defs>
<clipPath id="clip0_7111_174778">
<rect width="60" height="60" fill="white"></rect>
</clipPath>
</defs>
</svg>