<svg xmlns="http://www.w3.org/2000/svg" version="1.1" xmlns:xlink="http://www.w3.org/1999/xlink" viewBox="0 0 60 60">
<g clip-path="url(#clip0_684_9671)">
<path d="M46.4997 0H13.5003C6.0443 0 0 6.0443 0 13.5003V46.4997C0 53.9557 6.0443 60 13.5003 60H46.4997C53.9557 60 60 53.9557 60 46.4997V13.5003C60 6.0443 53.9557 0 46.4997 0Z" fill="#CEC73D"></path>
<path d="M24.7127 46.2214C24.1729 46.2214 23.6311 46.2214 23.0913 46.177L23.2733 40.9551C23.485 40.9551 23.7665 40.9995 23.993 40.9995C27.7269 40.9995 29.888 38.8405 29.888 33.9784V14.0814H36.9091V34.5647C36.9091 40.3687 33.8061 46.2214 24.7127 46.2214Z" fill="#25303B"></path>
</g>
<defs>
<clipPath id="clip0_684_9671">
<rect width="60" height="60" fill="white"></rect>
</clipPath>
</defs>
</svg>