<svg xmlns="http://www.w3.org/2000/svg" version="1.1" xmlns:xlink="http://www.w3.org/1999/xlink" viewBox="0 0 60 60">
<path d="M46.4997 0H13.5003C6.0443 0 0 6.0443 0 13.5003V46.4997C0 53.9557 6.0443 60 13.5003 60H46.4997C53.9557 60 60 53.9557 60 46.4997V13.5003C60 6.0443 53.9557 0 46.4997 0Z" fill="#F49FB3"></path>
<path d="M36.7651 45.8634L30.415 35.0682C29.38 33.3113 28.3894 33.1758 27.6633 33.1758H25.6122V45.8761H18.5806V14.0853H28.8868C36.0455 14.0853 42.5713 15.7046 42.5713 23.2231C42.5713 28.5339 38.431 30.9194 35.6391 31.3703C36.9451 33.6648 42.3469 41.7231 45.2722 45.8634H36.7651ZM29.0223 19.5316H25.6122V27.9412H29.4223C32.1232 27.9412 35.275 27.1327 35.275 23.6211C35.2813 19.9825 31.8142 19.5316 29.0223 19.5316Z" fill="#25303B"></path>
</svg>