<svg xmlns="http://www.w3.org/2000/svg" version="1.1" xmlns:xlink="http://www.w3.org/1999/xlink" viewBox="0 0 60 60">
<g clip-path="url(#clip0_684_10021)">
<path d="M22.1152 22.734V41.6975H17.0076V22.734H9.90186V18.5747H29.2104V22.734H22.1152Z" fill="#25303B"></path>
<path d="M41.9466 41.6975H36.676C36.676 38.6537 37.4931 36.6873 39.523 32.9238L45.1555 22.4356H33.9243V18.5747H50.1001V22.3403C45.0243 31.1479 41.9466 38.0547 41.9466 41.6975Z" fill="#25303B"></path>
<path d="M57.0006 0H2.99937C1.34286 0 0 1.34286 0 2.99937V6.00085C0 7.65735 1.34286 9.00021 2.99937 9.00021H57.0006C58.6571 9.00021 60 7.65735 60 6.00085V2.99937C60 1.34286 58.6571 0 57.0006 0Z" fill="#8D653D"></path>
<path d="M60.002 57.0008V53.9994C60.002 52.3429 58.6591 51 57.0026 51H3.00134C1.34483 51 0.00197601 52.3429 0.00197601 53.9994V57.0008C0.00197601 58.6573 1.34483 60.0002 3.00134 60.0002H57.0026C58.6591 60.0002 60.002 58.6573 60.002 57.0008Z" fill="#8D653D"></path>
</g>
<defs>
<clipPath id="clip0_684_10021">
<rect width="60" height="60" fill="white"></rect>
</clipPath>
</defs>
</svg>