<svg xmlns="http://www.w3.org/2000/svg" version="1.1" xmlns:xlink="http://www.w3.org/1999/xlink" viewBox="0 0 60 60">
<g clip-path="url(#clip0_684_10006)">
<path d="M21.7217 22.7358V41.6993H16.6141V22.7358H9.5083V18.5786H28.8253V22.7358H21.7217Z" fill="#25303B"></path>
<path d="M47.7738 36.8806V41.7003H43.1912V36.8806H32.7812V32.5985L41.7497 18.5859H47.7738V33.2864H50.4917V36.8848L47.7738 36.8806ZM43.1912 22.6373H43.1256C43.0282 23.0331 42.372 24.4407 41.4555 25.8801L36.7416 33.2885H43.1912V22.6373Z" fill="#25303B"></path>
<path d="M57.0006 0H2.99937C1.34286 0 0 1.34286 0 2.99937V6.00085C0 7.65735 1.34286 9.00021 2.99937 9.00021H57.0006C58.6571 9.00021 60 7.65735 60 6.00085V2.99937C60 1.34286 58.6571 0 57.0006 0Z" fill="#DFAF47"></path>
<path d="M60.002 57.0008V53.9994C60.002 52.3429 58.6591 51 57.0026 51H3.00134C1.34483 51 0.00197601 52.3429 0.00197601 53.9994V57.0008C0.00197601 58.6573 1.34483 60.0002 3.00134 60.0002H57.0026C58.6591 60.0002 60.002 58.6573 60.002 57.0008Z" fill="#DFAF47"></path>
</g>
<defs>
<clipPath id="clip0_684_10006">
<rect width="60" height="60" fill="white"></rect>
</clipPath>
</defs>
</svg>