<svg xmlns="http://www.w3.org/2000/svg" version="1.1" xmlns:xlink="http://www.w3.org/1999/xlink" viewBox="0 0 60 60">
<g clip-path="url(#clip0_684_10042)">
<path d="M17.1453 22.7453V41.6982H12.0335V22.7453H4.92773V18.5859H24.2447V22.7453H17.1453Z" fill="#25303B"></path>
<path d="M35.7721 41.6982V23.5306C34.3645 24.6439 32.1378 25.7235 30.5989 26.4114L29.0283 22.8744C31.4498 21.8605 34.3645 20.3343 36.6484 18.5859H40.6702V41.6982H35.7721Z" fill="#25303B"></path>
<path d="M50.1657 41.6982V23.5306C48.7581 24.6439 46.5313 25.7235 44.9925 26.4114L43.4219 22.8744C45.8434 21.8605 48.7581 20.3343 51.042 18.5859H55.0637V41.6982H50.1657Z" fill="#25303B"></path>
<path d="M57.0006 0H2.99937C1.34286 0 0 1.34286 0 2.99937V6.00085C0 7.65735 1.34286 9.00021 2.99937 9.00021H57.0006C58.6571 9.00021 60 7.65735 60 6.00085V2.99937C60 1.34286 58.6571 0 57.0006 0Z" fill="#F58F53"></path>
<path d="M60.002 57.0008V53.9994C60.002 52.3429 58.6591 51 57.0026 51H3.00134C1.34483 51 0.00197601 52.3429 0.00197601 53.9994V57.0008C0.00197601 58.6573 1.34483 60.0002 3.00134 60.0002H57.0026C58.6591 60.0002 60.002 58.6573 60.002 57.0008Z" fill="#F58F53"></path>
</g>
<defs>
<clipPath id="clip0_684_10042">
<rect width="60" height="60" fill="white"></rect>
</clipPath>
</defs>
</svg>