<svg xmlns="http://www.w3.org/2000/svg" version="1.1" xmlns:xlink="http://www.w3.org/1999/xlink" viewBox="0 0 60 60">
<g clip-path="url(#clip0_684_10031)">
<path d="M22.147 22.7453V41.7003H17.0394V22.7453H9.93359V18.5859H29.2506V22.7453H22.147Z" fill="#25303B"></path>
<path d="M38.9026 42.3197C37.7343 42.3207 36.5697 42.1886 35.4312 41.926L36.153 37.9974C37.1688 38.3739 38.2448 38.5618 39.3281 38.552C42.5687 38.552 44.9267 35.9675 45.2548 31.3193C44.4695 32.0051 42.9624 32.892 40.4753 32.892C36.6462 32.892 33.5664 30.3689 33.5664 26.0465C33.5664 21.4321 36.6462 18.0264 41.4892 18.0264C47.8097 18.0264 50.0682 22.4143 50.0682 28.5358C50.0661 36.5581 46.3005 42.3197 38.9026 42.3197ZM41.684 21.6607C39.3916 21.6607 38.2147 23.5277 38.2147 25.5237C38.2147 27.6849 39.6562 29.2576 41.9464 29.2576C43.4281 29.2576 44.5986 28.7009 45.0559 27.9876C45.3183 27.5939 45.3183 26.6773 45.3183 25.9894C45.3183 23.788 44.042 21.6607 41.684 21.6607Z" fill="#25303B"></path>
<path d="M57.0006 0H2.99937C1.34286 0 0 1.34286 0 2.99937V6.00085C0 7.65735 1.34286 9.00021 2.99937 9.00021H57.0006C58.6571 9.00021 60 7.65735 60 6.00085V2.99937C60 1.34286 58.6571 0 57.0006 0Z" fill="#5091CB"></path>
<path d="M60.002 57.0008V53.9994C60.002 52.3429 58.6591 51 57.0026 51H3.00134C1.34483 51 0.00197601 52.3429 0.00197601 53.9994V57.0008C0.00197601 58.6573 1.34483 60.0002 3.00134 60.0002H57.0026C58.6591 60.0002 60.002 58.6573 60.002 57.0008Z" fill="#5091CB"></path>
</g>
<defs>
<clipPath id="clip0_684_10031">
<rect width="60" height="60" fill="white"></rect>
</clipPath>
</defs>
</svg>