<svg xmlns="http://www.w3.org/2000/svg" version="1.1" xmlns:xlink="http://www.w3.org/1999/xlink" viewBox="0 0 60 60">
<g clip-path="url(#clip0_684_10054)">
<path d="M14.8823 22.7453V41.6982H9.77471V22.7453H2.66895V18.5859H21.986V22.7453H14.8823Z" fill="#25303B"></path>
<path d="M33.5036 41.6982V23.5306C32.096 24.6418 29.8692 25.7235 28.3304 26.4114L26.7598 22.8744C29.1813 21.8605 32.096 20.3216 34.3799 18.5859H38.4016V41.6982H33.5036Z" fill="#25303B"></path>
<path d="M48.3286 42.2568C45.0223 42.2568 43.1892 41.4376 41.6504 40.5211L43.4496 36.9523C44.7787 37.9041 46.366 38.429 48.0005 38.4573C50.6866 38.4573 52.3546 36.8867 52.3546 34.9224C52.3546 32.2723 50.3268 31.3558 47.9687 31.3558H45.579V27.5161H48.0005C50.259 27.5161 51.6666 26.3392 51.6666 24.5696C51.6666 23.0879 50.5554 21.7544 48.1317 21.7544C46.5443 21.7604 45.0158 22.3564 43.8433 23.4266L42.1732 20.0208C44.1375 18.7106 46.2669 17.957 49.1795 17.957C53.8934 17.957 56.588 20.7722 56.588 23.8499C56.588 26.2418 55.3179 28.1384 52.8562 29.0549V29.1226C55.4111 29.6116 57.3415 31.578 57.3415 34.8166C57.3309 38.8849 53.6965 42.2568 48.3286 42.2568Z" fill="#25303B"></path>
<path d="M57.0006 0H2.99937C1.34286 0 0 1.34286 0 2.99937V6.00085C0 7.65735 1.34286 9.00021 2.99937 9.00021H57.0006C58.6571 9.00021 60 7.65735 60 6.00085V2.99937C60 1.34286 58.6571 0 57.0006 0Z" fill="#8D653D"></path>
<path d="M60.002 57.0008V53.9994C60.002 52.3429 58.6591 51 57.0026 51H3.00134C1.34483 51 0.00197601 52.3429 0.00197601 53.9994V57.0008C0.00197601 58.6573 1.34483 60.0002 3.00134 60.0002H57.0026C58.6591 60.0002 60.002 58.6573 60.002 57.0008Z" fill="#8D653D"></path>
</g>
<defs>
<clipPath id="clip0_684_10054">
<rect width="60" height="60" fill="white"></rect>
</clipPath>
</defs>
</svg>