<svg xmlns="http://www.w3.org/2000/svg" version="1.1" xmlns:xlink="http://www.w3.org/1999/xlink" viewBox="0 0 60 60">
<g clip-path="url(#clip0_684_10036)">
<path d="M14.2768 22.7431V41.6982H9.16924V22.7431H2.06348V18.5859H21.3784V22.7431H14.2768Z" fill="#25303B"></path>
<path d="M32.8983 41.6982V23.5284C31.4907 24.6418 29.2639 25.7213 27.7251 26.4093L26.1523 22.8723C28.576 21.8584 31.4907 20.3322 33.7725 18.5859H37.7942V41.6982H32.8983Z" fill="#25303B"></path>
<path d="M49.4567 42.3209C42.4715 42.3209 41.1084 35.4459 41.1084 30.1097C41.1084 24.7735 42.6134 17.8984 49.5879 17.8984C56.5624 17.8984 57.9361 24.7735 57.9361 30.1097C57.9361 35.4459 56.4291 42.3209 49.4567 42.3209ZM49.5223 21.7889C46.1821 21.7889 46.0848 27.7474 46.0848 30.1055C46.0848 32.4635 46.2477 38.4537 49.5223 38.4537C52.7968 38.4537 52.928 32.3978 52.928 30.1055C52.928 27.6861 52.8286 21.8016 49.5307 21.8016L49.5223 21.7889Z" fill="#25303B"></path>
<path d="M57.0006 0H2.99937C1.34286 0 0 1.34286 0 2.99937V6.00085C0 7.65735 1.34286 9.00021 2.99937 9.00021H57.0006C58.6571 9.00021 60 7.65735 60 6.00085V2.99937C60 1.34286 58.6571 0 57.0006 0Z" fill="#9B9842"></path>
<path d="M60.002 57.0008V53.9994C60.002 52.3429 58.6591 51 57.0026 51H3.00134C1.34483 51 0.00197601 52.3429 0.00197601 53.9994V57.0008C0.00197601 58.6573 1.34483 60.0002 3.00134 60.0002H57.0026C58.6591 60.0002 60.002 58.6573 60.002 57.0008Z" fill="#9B9842"></path>
</g>
<defs>
<clipPath id="clip0_684_10036">
<rect width="60" height="60" fill="white"></rect>
</clipPath>
</defs>
</svg>