<svg xmlns="http://www.w3.org/2000/svg" version="1.1" xmlns:xlink="http://www.w3.org/1999/xlink" viewBox="0 0 60 60">
<g clip-path="url(#clip0_684_10048)">
<path d="M14.8999 22.7453V41.6982H9.79229V22.7453H2.68652V18.5859H22.0014V22.7453H14.8999Z" fill="#25303B"></path>
<path d="M33.5203 41.6982V23.5306C32.1127 24.6439 29.886 25.7235 28.3471 26.4114L26.7744 22.8744C29.198 21.8605 32.1127 20.3343 34.3945 18.5859H38.4163V41.6982H33.5203Z" fill="#25303B"></path>
<path d="M42.3214 41.6994V38.6577C42.9098 35.9716 45.5621 33.5184 48.6398 30.8259C50.1786 29.4839 51.8466 27.8138 51.8466 25.5871C51.8466 23.591 50.5363 21.921 48.0174 21.921C45.9875 21.921 44.5799 23.4026 44.0211 24.0165L41.5996 20.8139C43.8264 18.8835 45.888 17.9648 49.0081 17.9648C53.0679 17.9648 56.897 20.325 56.897 25.0367C56.897 28.9992 54.3781 30.864 51.6053 33.3871C50.4263 34.4666 48.1021 36.4965 47.8079 37.8322H57.333V41.6994H42.3214Z" fill="#25303B"></path>
<path d="M57.0006 0H2.99937C1.34286 0 0 1.34286 0 2.99937V6.00085C0 7.65735 1.34286 9.00021 2.99937 9.00021H57.0006C58.6571 9.00021 60 7.65735 60 6.00085V2.99937C60 1.34286 58.6571 0 57.0006 0Z" fill="#B6134C"></path>
<path d="M60.002 57.0008V53.9994C60.002 52.3429 58.6591 51 57.0026 51H3.00134C1.34483 51 0.00197601 52.3429 0.00197601 53.9994V57.0008C0.00197601 58.6573 1.34483 60.0002 3.00134 60.0002H57.0026C58.6591 60.0002 60.002 58.6573 60.002 57.0008Z" fill="#B6134C"></path>
</g>
<defs>
<clipPath id="clip0_684_10048">
<rect width="60" height="60" fill="white"></rect>
</clipPath>
</defs>
</svg>