<svg xmlns="http://www.w3.org/2000/svg" version="1.1" xmlns:xlink="http://www.w3.org/1999/xlink" viewBox="0 0 61 60">
<g clip-path="url(#clip0_684_9620)">
<path fill-rule="evenodd" clip-rule="evenodd" d="M60.002 30C60.002 35.9334 58.2425 41.7336 54.9461 46.6671C51.6496 51.6006 46.9643 55.4458 41.4825 57.7164C36.0007 59.987 29.9687 60.5811 24.1493 59.4236C18.3298 58.266 12.9843 55.4088 8.78876 51.2132C4.59319 47.0176 1.73596 41.6721 0.578408 35.8527C-0.579148 30.0333 0.0149518 24.0013 2.28558 18.5195C4.55621 13.0377 8.40139 8.35236 13.3349 5.05591C18.2683 1.75947 24.0685 7.46911e-08 30.002 7.46911e-08C33.9417 -0.000277929 37.8429 0.775505 41.4828 2.28305C45.1227 3.79059 48.43 6.00036 51.2158 8.78618C54.0016 11.572 56.2114 14.8793 57.7189 18.5192C59.2265 22.1591 60.0022 26.0603 60.002 30Z" fill="#00B297"></path>
<path d="M17.5091 45.8632V20.8862C15.5723 22.4165 12.5137 23.9025 10.397 24.8465L8.23584 19.9823C11.5675 18.5874 15.5723 16.4707 18.7241 14.0852H24.2593V45.8632H17.5091Z" fill="white"></path>
<path d="M39.7832 46.7171C32.7156 46.7171 28.7129 42.4837 28.7129 37.6703C28.7129 33.4369 31.0963 30.7826 34.157 29.2035C31.4053 27.4932 29.7014 25.3321 29.7014 22.047C29.7014 16.7806 34.4746 13.1335 39.9187 13.1335C45.5004 13.1335 50.136 15.8853 50.136 21.3273C50.136 24.2907 48.6078 26.818 45.6359 28.6193C48.5612 30.0142 51.1266 32.7151 51.1266 36.902C51.1266 42.9367 46.3111 46.7171 39.7832 46.7171ZM39.2456 31.4134C37.1733 32.2241 35.1032 34.4741 35.1032 36.9507C35.1032 39.5606 36.8135 42.0307 39.8743 42.0307C42.8906 42.0307 44.5564 39.914 44.5564 37.3931C44.5564 34.5186 41.9444 32.7638 39.2456 31.4134ZM40.0076 17.731C37.5311 17.731 35.9562 19.2593 35.9562 21.467C35.9562 24.0769 38.5661 25.7004 40.5918 26.5471C42.2577 25.7829 44.059 23.7128 44.059 21.7316C44.0611 19.5302 42.6196 17.731 40.0076 17.731Z" fill="white"></path>
</g>
<defs>
<clipPath id="clip0_684_9620">
<rect width="60" height="60" fill="white" transform="translate(0.00195312)"></rect>
</clipPath>
</defs>
</svg>